<svg width="30mm" height="30mm" version="1.1" viewBox="0 0 30 30" xmlns="http://www.w3.org/2000/svg">
<g transform="translate(0,-267)" fill="none">
<path d="m1.6537 293.12c0.030989 0.0293-0.024225 0.0562-0.048721 0.0515-0.066382-0.0128-0.079335-0.097-0.054289-0.14895 0.044801-0.0929 0.16745-0.10701 0.24917-0.0571 0.11994 0.0733 0.13548 0.23881 0.059857 0.3494-0.1008 0.1474-0.31051 0.16428-0.44963 0.0626-0.17507-0.12791-0.19326-0.38236-0.065425-0.54985 0.15483-0.20286 0.45431-0.22234 0.65008-0.0682 0.23071 0.18163 0.25147 0.5263 0.070994 0.7503-0.20837 0.25862-0.59834 0.28065-0.85053 0.0738-0.28655-0.23506-0.30986-0.67041-0.076562-0.95076 0.26173-0.31451 0.74249-0.33909 1.051-0.0793 0.34249 0.28836 0.36834 0.81458 0.08213 1.1512" stroke-width="0"/>
<path d="m13.891 282.73c0.52116 0.62539-0.58589 1.0111-1.0394 0.8662-1.2291-0.39255-1.2847-2.0176-0.69296-2.9451 1.0584-1.659 3.4145-1.6504 4.8507-0.51971 2.1076 1.6594 2.029 4.8311 0.34648 6.7563-2.2425 2.566-6.2547 2.4132-8.662 0.17324-3.0292-2.8187-2.8002-7.6818 5e-6 -10.568 3.3915-3.4951 9.1107-3.189 12.473 0.17324 3.9626 3.9623 3.5788 10.541-0.34648 14.379-4.5319 4.4311-11.972 3.9693-16.284-0.51972-4.9003-5.1008-4.3604-13.403 0.69297-18.19 5.6691-5.37 14.835-4.7518 20.096 0.8662 5.8401 6.237 5.1434 16.268-1.0394 22.001" stroke="#000" stroke-width=".26458"/>
</g>
</svg>
