<svg width="400" height="225" xmlns="http://www.w3.org/2000/svg"><path d="M4 60 3 61 2 61 1 62 0 62 0 63 1 64 1 78 0 79 1 80 0 81 1 82 0 83 0 102 18 102 19 103 19 121 18 122 1 122 0 121 0 120 1 119 1 104 1 119 0 120 0 122 1 123 1 143 0 144 1 145 1 162 0 163 0 164 1 165 1 182 0 183 0 184 1 185 1 199 0 200 0 205 1 206 1 223 0 224 1 224 2 223 17 223 2 223 1 222 1 206 0 205 0 200 1 199 1 185 2 184 17 184 2 184 1 185 0 184 0 183 1 182 1 165 0 164 0 163 1 162 2 163 18 163 19 164 19 224 19 88 20 87 19 86 19 61 18 60 " style="stroke:black"/><path d="M0 144 1 143 18 143 19 144 19 162 18 163 2 163 1 162 1 145 " style="stroke:black"/><path d="M1 123 2 122 18 122 19 123 19 142 18 143 2 143 1 142 " style="stroke:black"/><path d="M17 87 18 86 19 86 20 87 19 88 18 88 " style="stroke:black"/><path d="M2 81 14 81 15 82 17 82 18 81 19 82 19 85 18 86 17 86 17 88 18 88 19 89 19 101 18 102 1 102 0 101 0 83 " style="stroke:black"/><path d="M15 81 16 80 17 81 16 82 " style="stroke:black"/><path d="M3 61 4 60 18 60 19 61 19 80 18 81 17 80 15 80 14 81 2 81 1 80 2 79 1 78 1 64 0 63 2 61 " style="stroke:black"/><path d="M376 24 377 24 " style="stroke:black"/><path d="M399 0 399 1 398 2 398 14 399 15 398 16 399 17 399 18 399 17 398 16 399 15 398 14 398 2 399 1 " style="stroke:black"/><path d="M339 0 339 18 339 2 340 1 341 1 342 0 352 0 353 1 353 3 354 3 355 4 355 17 355 2 354 1 355 0 354 1 353 1 352 0 342 0 341 1 340 1 " style="stroke:black"/><path d="M353 2 354 1 355 2 354 3 " style="stroke:black"/><path d="M273 0 273 17 " style="stroke:black"/><path d="M189 0 189 18 " style="stroke:black"/><path d="M168 0 168 18 168 1 169 0 170 1 171 0 186 0 187 1 186 0 171 0 170 1 169 0 " style="stroke:black"/><path d="M104 0 104 17 " style="stroke:black"/><path d="M41 0 41 18 " style="stroke:black"/><path d="M19 0 19 19 18 20 0 20 59 20 60 21 59 22 0 22 0 37 1 38 0 39 0 40 19 40 20 41 20 59 20 41 21 40 40 40 41 41 41 59 41 41 42 40 103 40 104 41 104 59 104 42 106 40 167 40 168 41 168 59 168 41 169 40 187 40 189 42 189 59 189 41 190 40 209 40 210 39 211 40 230 40 231 41 231 59 231 41 232 40 272 40 273 41 273 59 273 41 274 40 336 40 337 41 337 43 336 44 336 45 337 46 337 56 336 57 336 60 335 61 211 61 210 60 210 42 210 60 209 61 21 61 82 61 83 62 83 80 82 81 42 81 41 80 41 63 41 80 40 81 21 81 40 81 41 82 41 100 41 82 42 81 103 81 104 82 104 101 103 102 21 102 40 102 41 103 41 121 40 122 21 122 40 122 41 123 41 162 40 163 21 163 40 163 41 164 41 182 40 183 39 183 38 184 22 184 38 184 39 183 41 185 41 202 41 185 40 184 41 183 41 123 42 122 103 122 104 123 104 162 103 163 102 162 102 143 86 143 101 143 102 144 102 162 101 163 84 163 83 162 83 124 83 182 84 183 83 184 83 202 83 185 84 184 101 184 102 185 102 201 102 185 103 184 104 185 104 203 103 204 63 204 62 203 62 124 62 142 61 143 44 143 61 143 62 144 62 162 61 163 43 163 61 163 62 164 62 203 61 204 21 204 61 204 62 205 62 223 61 224 60 224 59 223 44 223 43 224 44 223 59 223 60 224 62 224 63 223 80 223 81 224 83 224 83 205 84 204 103 204 104 205 104 223 103 224 102 223 85 223 102 223 103 224 105 224 106 223 125 223 126 224 127 223 128 224 129 223 145 223 144 222 144 207 144 222 143 223 129 223 128 224 127 223 126 223 125 222 125 206 125 222 124 223 108 223 107 222 107 207 107 222 105 224 104 223 104 206 106 204 146 204 147 205 147 224 149 224 150 223 166 223 167 224 170 224 171 223 186 223 187 224 188 224 189 223 189 205 190 204 230 204 231 205 231 224 233 224 234 223 250 223 234 223 233 224 232 224 231 223 231 205 232 204 250 204 232 204 231 203 231 123 232 122 251 122 252 123 252 142 251 143 233 143 251 143 252 144 252 224 252 123 253 122 272 122 273 123 273 203 272 204 254 204 272 204 273 205 273 223 272 224 271 223 271 208 271 222 270 223 255 223 254 224 255 223 271 223 272 224 275 224 276 223 291 223 292 224 294 224 294 205 295 204 314 204 315 205 315 223 314 224 313 223 313 208 313 222 312 223 298 223 297 224 296 224 297 224 298 223 313 223 314 224 315 224 315 205 316 204 336 204 337 205 337 224 337 205 338 204 339 205 339 224 340 223 354 223 355 224 356 223 355 222 355 208 355 222 354 223 340 223 339 222 339 205 340 204 356 204 340 204 339 203 339 200 340 199 341 200 341 199 340 199 339 198 339 185 340 184 354 184 355 185 355 202 355 185 356 184 357 185 357 201 358 202 358 224 358 205 359 204 360 205 360 224 361 223 375 223 376 224 377 223 376 222 376 207 377 206 378 206 379 207 379 224 380 224 381 223 397 223 398 222 399 223 399 224 399 223 398 222 398 209 399 208 398 207 399 206 399 201 398 200 398 187 399 186 399 183 398 182 398 166 399 165 399 162 398 161 398 145 399 144 399 139 398 138 398 126 399 125 399 124 398 123 399 122 398 121 399 120 399 119 398 118 398 103 399 102 399 101 398 100 398 84 399 83 398 82 399 81 380 81 397 81 399 83 398 84 398 100 399 101 398 102 380 102 397 102 398 103 398 118 399 119 399 120 397 122 381 122 381 123 382 122 397 122 399 124 399 125 398 126 398 138 399 139 399 142 398 143 381 143 398 143 399 144 398 145 398 161 399 162 398 163 380 163 398 163 399 164 399 165 398 166 398 182 399 183 399 186 398 187 398 200 399 201 399 206 398 207 399 208 398 209 398 222 397 223 381 223 380 224 379 223 379 205 380 204 397 204 379 204 377 202 377 185 378 184 378 167 377 166 377 165 378 164 378 128 379 127 378 126 378 84 379 83 378 82 378 61 379 60 380 61 399 61 380 61 378 59 378 58 378 59 379 60 378 61 377 61 376 60 376 59 376 60 375 61 361 61 377 61 378 62 378 81 377 82 376 82 375 81 360 81 359 80 359 79 360 78 360 63 359 62 359 60 360 59 360 41 361 40 374 40 361 40 360 39 361 38 375 38 375 37 376 36 375 36 375 37 374 38 361 38 360 37 360 23 359 22 361 20 374 20 375 21 376 20 377 21 378 20 379 21 379 41 377 43 375 43 375 44 376 43 378 45 378 56 378 45 377 44 377 43 380 40 398 40 399 41 397 43 381 43 382 43 383 44 382 45 383 45 383 44 384 43 397 43 398 44 398 58 398 44 399 43 398 42 399 41 398 40 380 40 379 39 379 23 380 22 399 22 380 22 379 21 380 20 399 20 380 20 378 18 378 0 360 0 360 19 359 20 358 20 357 19 357 0 357 19 356 20 338 20 337 19 337 0 337 19 336 20 20 20 19 19 " style="stroke:black"/><path d="M354 223 355 222 356 223 355 224 " style="stroke:black"/><path d="M360 205 361 204 376 204 377 205 377 206 376 207 376 222 375 223 361 223 360 222 " style="stroke:black"/><path d="M62 205 63 204 82 204 83 205 83 223 82 224 81 224 80 223 63 223 62 222 " style="stroke:black"/><path d="M377 204 378 203 379 204 379 205 378 206 377 205 " style="stroke:black"/><path d="M336 204 337 203 338 204 337 205 " style="stroke:black"/><path d="M360 187 361 186 376 186 377 187 377 203 376 204 361 204 360 203 " style="stroke:black"/><path d="M360 185 361 184 376 184 377 185 376 186 361 186 " style="stroke:black"/><path d="M337 185 338 184 339 185 339 203 338 204 337 203 " style="stroke:black"/><path d="M315 185 316 184 333 184 334 185 334 202 334 185 335 184 336 184 337 185 337 203 336 204 316 204 315 203 " style="stroke:black"/><path d="M147 185 148 184 167 184 168 185 168 203 167 204 148 204 147 203 " style="stroke:black"/><path d="M104 185 105 184 122 184 123 185 123 200 123 185 124 184 125 185 125 203 124 204 105 204 104 203 " style="stroke:black"/><path d="M336 184 337 183 338 184 337 185 " style="stroke:black"/><path d="M336 164 337 163 338 163 339 164 339 183 338 184 337 183 337 165 " style="stroke:black"/><path d="M315 164 316 163 335 163 337 165 337 183 336 184 335 184 334 183 334 165 334 183 333 184 316 184 315 183 " style="stroke:black"/><path d="M296 163 314 163 315 164 315 203 314 204 295 204 294 203 294 185 295 184 312 184 313 185 312 186 313 187 313 184 296 184 294 182 294 165 " style="stroke:black"/><path d="M147 164 148 163 167 163 168 164 168 183 167 184 148 184 147 183 " style="stroke:black"/><path d="M126 164 127 163 146 163 147 164 147 183 146 184 127 184 128 185 128 188 127 189 128 190 128 201 128 187 129 186 143 186 144 187 144 201 144 200 145 199 144 198 144 186 129 186 128 185 129 184 146 184 147 185 147 203 146 204 126 204 125 203 125 183 126 182 " style="stroke:black"/><path d="M83 164 84 163 103 163 104 164 104 183 103 184 85 184 83 182 " style="stroke:black"/><path d="M357 163 358 162 360 164 360 165 359 166 359 167 360 168 360 183 359 184 360 185 360 203 359 204 358 203 358 202 357 201 357 169 357 183 355 185 354 184 340 184 339 183 339 182 340 181 350 181 351 182 352 181 354 181 355 182 355 165 355 180 354 181 340 181 339 180 339 169 340 168 341 168 340 168 339 167 339 164 340 163 356 163 357 164 " style="stroke:black"/><path d="M314 163 315 162 316 163 315 164 " style="stroke:black"/><path d="M293 163 294 162 295 163 294 164 " style="stroke:black"/><path d="M360 144 361 143 377 143 378 144 378 164 377 165 376 164 375 165 375 166 375 165 376 164 377 165 377 166 378 167 378 184 377 185 376 184 361 184 360 183 360 182 361 181 376 181 361 181 360 180 360 168 359 167 359 166 360 165 360 164 361 163 374 163 361 163 360 162 " style="stroke:black"/><path d="M358 144 359 143 360 144 360 162 359 163 358 162 " style="stroke:black"/><path d="M337 144 338 143 339 144 339 162 338 163 337 162 " style="stroke:black"/><path d="M147 144 148 143 167 143 168 144 168 162 167 163 148 163 147 162 " style="stroke:black"/><path d="M127 143 146 143 147 144 147 162 146 163 127 163 125 161 125 145 " style="stroke:black"/><path d="M375 123 376 122 377 122 378 123 378 126 379 127 378 128 377 128 376 127 376 126 375 125 376 124 " style="stroke:black"/><path d="M360 123 361 122 374 122 375 123 375 126 376 127 376 128 377 128 378 129 378 142 377 143 361 143 360 142 " style="stroke:black"/><path d="M339 123 340 122 356 122 357 123 357 141 358 142 358 162 357 163 340 163 339 162 339 144 340 143 356 143 340 143 339 142 339 127 340 126 339 125 " style="stroke:black"/><path d="M337 123 338 122 339 123 339 142 338 143 337 142 " style="stroke:black"/><path d="M273 123 274 122 315 122 316 123 315 124 315 162 314 163 295 163 294 162 294 125 294 142 293 143 292 142 278 142 277 143 276 143 277 143 278 142 292 142 294 144 294 162 293 163 275 163 293 163 294 164 294 223 293 224 292 224 291 223 276 223 275 224 274 224 273 223 " style="stroke:black"/><path d="M210 123 211 122 230 122 231 123 231 162 230 163 211 163 210 162 210 144 211 143 229 143 211 143 210 142 " style="stroke:black"/><path d="M168 123 169 122 188 122 189 123 189 222 187 224 186 223 171 223 170 224 169 224 168 223 168 206 168 223 167 224 165 222 165 209 165 222 164 223 150 223 149 224 148 224 147 223 147 205 148 204 187 204 169 204 168 203 168 185 169 184 187 184 169 184 168 183 168 164 169 163 187 163 169 163 168 162 " style="stroke:black"/><path d="M125 123 126 122 146 122 147 123 147 142 146 143 126 143 125 142 126 141 126 125 125 124 " style="stroke:black"/><path d="M104 123 105 122 124 122 125 123 125 124 126 125 126 141 124 143 106 143 124 143 125 142 126 143 126 144 125 145 125 161 126 162 126 182 124 184 105 184 104 183 104 164 105 163 124 163 105 163 104 162 " style="stroke:black"/><path d="M357 122 358 121 360 123 360 142 359 143 357 141 " style="stroke:black"/><path d="M360 103 361 102 377 102 378 103 378 121 377 122 361 122 360 121 " style="stroke:black"/><path d="M358 103 359 102 360 103 360 121 359 122 358 121 " style="stroke:black"/><path d="M337 103 338 102 339 103 339 121 338 122 337 121 " style="stroke:black"/><path d="M273 103 274 102 314 102 315 103 315 121 314 122 274 122 273 121 " style="stroke:black"/><path d="M252 103 253 102 272 102 273 103 273 121 272 122 253 122 252 121 " style="stroke:black"/><path d="M231 103 232 102 251 102 252 103 252 121 251 122 232 122 231 121 " style="stroke:black"/><path d="M210 103 211 102 230 102 231 103 231 121 230 122 211 122 210 121 " style="stroke:black"/><path d="M168 103 169 102 188 102 189 103 189 121 188 122 169 122 168 121 " style="stroke:black"/><path d="M147 103 148 102 167 102 168 103 168 142 167 143 148 143 147 142 147 123 148 122 166 122 148 122 147 121 " style="stroke:black"/><path d="M104 103 105 102 146 102 147 103 147 121 146 122 127 122 125 120 126 119 126 104 126 119 125 120 126 121 125 122 105 122 104 121 " style="stroke:black"/><path d="M83 103 84 102 103 102 104 103 104 121 103 122 84 122 83 121 " style="stroke:black"/><path d="M41 103 42 102 61 102 62 103 62 120 62 103 63 102 82 102 83 103 83 121 82 122 42 122 41 121 " style="stroke:black"/><path d="M376 83 377 82 378 82 379 83 378 84 377 84 " style="stroke:black"/><path d="M360 82 361 81 375 81 376 82 376 84 377 84 378 85 378 101 377 102 361 102 360 101 " style="stroke:black"/><path d="M317 81 336 81 337 82 337 163 336 164 335 163 316 163 315 162 315 124 317 122 335 122 316 122 315 121 315 103 316 102 335 102 316 102 315 101 315 83 " style="stroke:black"/><path d="M273 82 274 81 315 81 316 82 315 83 315 101 314 102 275 102 273 100 " style="stroke:black"/><path d="M231 82 232 81 272 81 273 82 273 100 274 101 273 102 232 102 231 101 " style="stroke:black"/><path d="M189 82 190 81 230 81 231 82 231 101 230 102 211 102 210 101 210 83 210 101 209 102 191 102 209 102 210 103 210 121 209 122 191 122 207 122 208 123 208 141 208 123 209 122 210 123 210 162 209 163 191 163 230 163 231 164 231 183 230 184 211 184 210 183 210 165 210 182 209 183 208 182 208 165 208 182 209 183 208 184 191 184 207 184 208 185 208 202 208 185 209 184 210 185 210 202 210 185 211 184 230 184 231 185 231 203 230 204 190 204 189 203 " style="stroke:black"/><path d="M104 82 105 81 124 81 126 83 126 100 126 83 125 82 126 81 188 81 189 82 189 100 187 102 169 102 168 101 168 83 168 101 167 102 106 102 104 100 " style="stroke:black"/><path d="M358 81 359 80 360 81 360 101 359 102 358 101 " style="stroke:black"/><path d="M356 81 357 80 358 81 358 121 357 122 340 122 339 121 339 103 340 102 356 102 338 102 337 101 337 82 338 81 " style="stroke:black"/><path d="M336 81 337 80 338 81 337 82 " style="stroke:black"/><path d="M357 80 358 79 359 80 358 81 " style="stroke:black"/><path d="M358 63 359 62 360 63 360 78 359 79 358 78 " style="stroke:black"/><path d="M337 62 338 61 356 61 358 63 358 78 357 79 357 80 356 81 338 81 337 80 " style="stroke:black"/><path d="M210 62 211 61 336 61 337 62 337 80 336 81 274 81 273 80 273 63 273 80 272 81 253 81 252 80 252 64 252 80 251 81 232 81 231 80 231 63 231 80 230 81 211 81 210 80 " style="stroke:black"/><path d="M189 62 190 61 209 61 210 62 210 80 209 81 190 81 189 80 " style="stroke:black"/><path d="M104 62 105 61 188 61 189 62 189 80 188 81 169 81 168 80 168 63 168 80 167 81 148 81 147 80 147 64 147 80 146 81 105 81 104 80 " style="stroke:black"/><path d="M83 62 84 61 103 61 104 62 104 80 103 81 84 81 83 80 " style="stroke:black"/><path d="M357 61 358 60 359 61 358 62 " style="stroke:black"/><path d="M336 44 337 43 338 43 339 44 339 56 338 57 337 56 337 46 336 45 " style="stroke:black"/><path d="M397 43 398 42 399 43 398 44 " style="stroke:black"/><path d="M230 40 231 39 232 40 231 41 " style="stroke:black"/><path d="M335 39 336 38 337 39 336 40 " style="stroke:black"/><path d="M316 39 317 38 318 39 317 40 " style="stroke:black"/><path d="M183 39 184 38 185 39 184 40 " style="stroke:black"/><path d="M358 23 359 22 360 23 360 59 359 60 358 59 " style="stroke:black"/><path d="M168 23 169 22 171 22 172 23 171 24 172 24 172 23 173 22 188 22 189 23 189 39 190 40 189 41 188 41 187 40 186 40 185 39 186 38 184 38 183 37 184 36 185 36 184 36 182 38 171 38 182 38 183 39 182 40 169 40 168 39 " style="stroke:black"/><path d="M102 23 103 22 104 23 104 39 103 40 102 39 " style="stroke:black"/><path d="M62 23 63 22 82 22 83 23 83 39 82 40 63 40 62 39 " style="stroke:black"/><path d="M60 23 61 22 62 23 62 37 61 38 60 37 " style="stroke:black"/><path d="M41 23 42 22 59 22 60 23 60 37 59 38 45 38 61 38 62 39 61 40 42 40 41 39 " style="stroke:black"/><path d="M0 23 1 22 19 22 20 23 20 38 20 23 21 22 40 22 41 23 41 37 40 38 22 38 40 38 41 39 40 40 1 40 0 39 1 38 18 38 16 38 15 37 16 36 17 36 16 36 14 38 1 38 0 37 " style="stroke:black"/><path d="M357 21 358 20 359 20 360 21 359 22 358 22 " style="stroke:black"/><path d="M355 21 356 20 357 21 356 22 " style="stroke:black"/><path d="M342 21 343 20 354 20 355 21 355 22 356 22 357 21 358 22 358 59 356 61 337 61 336 60 336 57 337 56 339 58 339 44 340 43 342 43 341 42 340 43 339 42 338 43 337 42 337 41 338 40 356 40 338 40 337 39 338 38 341 38 337 38 336 37 336 23 337 22 342 22 " style="stroke:black"/><path d="M339 21 340 20 341 20 342 21 341 22 340 22 " style="stroke:black"/><path d="M87 21 88 20 226 20 227 21 228 20 229 21 230 20 338 20 339 21 338 22 337 22 336 23 336 37 335 38 334 37 334 24 334 37 335 38 335 39 334 40 319 40 318 39 318 24 318 37 317 38 316 37 316 22 316 39 315 40 253 40 252 39 252 23 252 37 251 38 250 37 250 23 250 37 249 38 233 38 251 38 252 39 251 40 232 40 231 39 231 23 231 39 230 40 211 40 210 39 210 22 209 22 210 23 210 39 209 40 190 40 189 39 189 23 190 22 207 22 168 22 168 39 167 40 148 40 147 39 147 23 148 22 150 22 147 22 147 39 146 40 106 40 105 41 104 41 103 40 104 39 104 23 103 22 88 22 " style="stroke:black"/><path d="M152 22 166 22 " style="stroke:black"/><path d="M111 22 124 22 126 24 125 25 125 38 125 25 126 24 125 23 126 22 145 22 " style="stroke:black"/><path d="M106 22 109 22 " style="stroke:black"/><path d="M85 21 86 20 87 21 87 22 101 22 102 23 102 37 101 38 85 38 101 38 102 39 101 40 84 40 83 39 83 23 84 22 85 22 " style="stroke:black"/><path d="M62 21 63 20 84 20 85 21 84 22 63 22 " style="stroke:black"/><path d="M60 21 61 20 62 21 61 22 " style="stroke:black"/><path d="M360 1 361 0 377 0 378 1 378 16 377 17 379 19 378 20 361 20 360 19 " style="stroke:black"/></svg>